<?xml version="1.0" encoding="utf-8"?>
<!-- Generator: Adobe Illustrator 25.4.0, SVG Export Plug-In . SVG Version: 6.00 Build 0)  -->
<svg version="1.1" id="Layer_6" xmlns="http://www.w3.org/2000/svg" xmlnsXlink="http://www.w3.org/1999/xlink" x="0px" y="0px"
	 viewBox="0 0 481.2 113.2" style="enable-background:new 0 0 481.2 113.2;" xml:space="preserve">
<style type="text/css">
	.st0{fill:#FFFFFF;}
	.st1{fill:#37BEC1;}
	.st2{fill:#FBB144;}
	.st3{fill:#E4615E;}
</style>
<path class="st0" d="M118.6,111.1v-7.8l12.8-3.1V24.7l-12.8-3.1v-7.8h73.7v28.5h-8.2l-5.6-17.9H154v32.3l25.8-2.3v13.7L154,66.1
	v34.4h24.9l9.4-19.4h8.2l-4.2,30L118.6,111.1z"/>
<path class="st0" d="M202.7,49v-7.4h33.2v47.9c0,4.7,0.6,8,1.7,9.8s3.5,2.7,7,2.7c2.9-0.1,5.7-0.8,8.3-2.1c2.7-1.3,5.1-3.2,7-5.6
	V51.8l-9-2.8v-7.4h30.5v59h10.8v6c-1.6,1.1-3.2,2.1-4.9,3c-1.2,0.6-2.6,1.2-4.2,1.8c-1.5,0.6-3.1,1-4.7,1.3c-1.5,0.3-3,0.4-4.5,0.4
	c-6.7,0-11.3-3-14-9c-6.6,6-14.6,9-24.2,9c-14.2,0-21.2-7.3-21.2-21.8V51.8L202.7,49z"/>
<path class="st0" d="M296.2,111.1v-7.4l11.8-2.8V12.6h-11.8V5.3L318.4,0h11v101l11.8,2.8v7.4L296.2,111.1z"/>
<path class="st0" d="M347.4,75.5c0-10.9,3.1-19.7,9.2-26.2c6.2-6.5,14.5-9.8,25.1-9.8c10.7,0,18.9,3.7,24.4,11
	c5.5,7.3,8.3,16.4,8.3,27.1h-45.5c0.5,6.5,3.1,12.7,7.4,17.6c4,4.8,10.1,7.5,16.4,7.4c5.5-0.1,10.9-1.1,16.1-3.1l2.9,7.9
	c-7.9,3.6-16.5,5.6-25.3,5.7c-11.9,0-21.4-3.5-28.4-10.5C350.9,95.7,347.4,86.6,347.4,75.5z M368.8,69l23.5-1.5
	c0-2.1-0.1-4.1-0.4-6.2c-0.4-2.4-1.2-4.7-2.4-6.9c-2.3-3.9-5.1-5.8-8.2-5.8c-3.7,0-6.8,1.9-9.2,5.7c-1.4,2.3-2.3,4.9-2.8,7.6
	C368.9,64.3,368.8,66.6,368.8,69L368.8,69z"/>
<path class="st0" d="M422.4,111.1v-7.4l11.8-2.8V54.3h-11.8v-7.4l22.2-5.3h11V50c6.4-6.7,15.4-10.5,24.7-10.4
	c0.6,1.9,0.9,3.9,0.8,5.8c0,4-0.4,8.1-1.4,12l-17.5-3c-2.4,1.2-4.7,2.6-6.7,4.4v42.1l14.6,2.8v7.4L422.4,111.1z"/>
<path class="st1" d="M5.8,38.6l53.7-23.9c4.9-2.2,10.7,0,12.9,5l0,0c2.2,4.9,0,10.7-5,12.9L13.8,56.5c-4.9,2.2-10.7,0-12.9-5l0,0
	C-1.4,46.6,0.9,40.8,5.8,38.6z"/>
<path class="st2" d="M8.8,69.5l35.8-15.9c4.9-2.2,10.7,0,12.9,5l0,0c2.2,4.9,0,10.7-5,12.9L16.8,87.4c-4.9,2.2-10.7,0-12.9-5l0,0
	C1.6,77.5,3.9,71.7,8.8,69.5z"/>
<path class="st3" d="M29.7,92.3l53.7-23.9c4.9-2.2,10.7,0,12.9,5l0,0c2.2,4.9,0,10.7-5,12.9l-53.7,23.9c-4.9,2.2-10.7,0-12.9-5l0,0
	C22.6,100.3,24.8,94.5,29.7,92.3z"/>
</svg>
